<mxfile host="app.diagrams.net" modified="2023-04-05T13:29:57.356Z" agent="Mozilla/5.0 (Windows NT 10.0; Win64; x64) AppleWebKit/537.36 (KHTML, like Gecko) Chrome/111.0.0.0 Safari/537.36 Edg/111.0.1661.62" etag="OqVH8k6xRWWg2uXx2Nuw" version="21.1.4" type="device">
  <diagram id="PC-vwTNk11y2pP-68qxe" name="Trang-1">
    <mxGraphModel dx="1050" dy="541" grid="1" gridSize="10" guides="1" tooltips="1" connect="1" arrows="1" fold="1" page="1" pageScale="1" pageWidth="827" pageHeight="1169" math="0" shadow="0">
      <root>
        <mxCell id="0" />
        <mxCell id="1" parent="0" />
        <mxCell id="9hqYcpHP6ykQroHhKrSM-1" value="&lt;font style=&quot;font-size: 17px;&quot;&gt;Begin&lt;br&gt;&amp;nbsp; &amp;nbsp; Input Toan, Ly, Hoa&lt;br&gt;&amp;nbsp; &amp;nbsp; TRUNGBINH = (Toan + Ly + Hoa)/3&lt;br&gt;&amp;nbsp; &amp;nbsp; Print &#39;&#39;TRUNGBINH&#39;&#39;&amp;nbsp;&lt;br&gt;End&lt;/font&gt;" style="text;html=1;strokeColor=none;fillColor=none;align=left;verticalAlign=middle;whiteSpace=wrap;rounded=0;" vertex="1" parent="1">
          <mxGeometry x="20" y="30" width="320" height="110" as="geometry" />
        </mxCell>
        <mxCell id="9hqYcpHP6ykQroHhKrSM-2" value="Begin" style="ellipse;whiteSpace=wrap;html=1;" vertex="1" parent="1">
          <mxGeometry x="370" y="10" width="100" height="50" as="geometry" />
        </mxCell>
        <mxCell id="9hqYcpHP6ykQroHhKrSM-3" value="Input Toan, Ly, Hoa" style="shape=parallelogram;perimeter=parallelogramPerimeter;whiteSpace=wrap;html=1;fixedSize=1;" vertex="1" parent="1">
          <mxGeometry x="355" y="90" width="130" height="70" as="geometry" />
        </mxCell>
        <mxCell id="9hqYcpHP6ykQroHhKrSM-4" value="TRUNGBINH = (Toan + Ly + Hoa)/3" style="rounded=0;whiteSpace=wrap;html=1;" vertex="1" parent="1">
          <mxGeometry x="315" y="200" width="210" height="60" as="geometry" />
        </mxCell>
        <mxCell id="9hqYcpHP6ykQroHhKrSM-10" value="" style="edgeStyle=orthogonalEdgeStyle;rounded=0;orthogonalLoop=1;jettySize=auto;html=1;" edge="1" parent="1" source="9hqYcpHP6ykQroHhKrSM-5" target="9hqYcpHP6ykQroHhKrSM-6">
          <mxGeometry relative="1" as="geometry" />
        </mxCell>
        <mxCell id="9hqYcpHP6ykQroHhKrSM-5" value="Print TRUNGBINH" style="shape=parallelogram;perimeter=parallelogramPerimeter;whiteSpace=wrap;html=1;fixedSize=1;" vertex="1" parent="1">
          <mxGeometry x="346" y="290" width="135" height="70" as="geometry" />
        </mxCell>
        <mxCell id="9hqYcpHP6ykQroHhKrSM-6" value="End" style="ellipse;whiteSpace=wrap;html=1;" vertex="1" parent="1">
          <mxGeometry x="370" y="390" width="95" height="60" as="geometry" />
        </mxCell>
        <mxCell id="9hqYcpHP6ykQroHhKrSM-7" value="" style="endArrow=classic;html=1;rounded=0;exitX=0.5;exitY=1;exitDx=0;exitDy=0;" edge="1" parent="1" source="9hqYcpHP6ykQroHhKrSM-2">
          <mxGeometry width="50" height="50" relative="1" as="geometry">
            <mxPoint x="390" y="320" as="sourcePoint" />
            <mxPoint x="420" y="90" as="targetPoint" />
          </mxGeometry>
        </mxCell>
        <mxCell id="9hqYcpHP6ykQroHhKrSM-8" value="" style="endArrow=classic;html=1;rounded=0;exitX=0.5;exitY=1;exitDx=0;exitDy=0;entryX=0.5;entryY=0;entryDx=0;entryDy=0;" edge="1" parent="1" source="9hqYcpHP6ykQroHhKrSM-3" target="9hqYcpHP6ykQroHhKrSM-4">
          <mxGeometry width="50" height="50" relative="1" as="geometry">
            <mxPoint x="430" y="70" as="sourcePoint" />
            <mxPoint x="430" y="100" as="targetPoint" />
          </mxGeometry>
        </mxCell>
        <mxCell id="9hqYcpHP6ykQroHhKrSM-9" value="" style="endArrow=classic;html=1;rounded=0;exitX=0.5;exitY=1;exitDx=0;exitDy=0;" edge="1" parent="1" source="9hqYcpHP6ykQroHhKrSM-4">
          <mxGeometry width="50" height="50" relative="1" as="geometry">
            <mxPoint x="440" y="80" as="sourcePoint" />
            <mxPoint x="420" y="290" as="targetPoint" />
          </mxGeometry>
        </mxCell>
      </root>
    </mxGraphModel>
  </diagram>
</mxfile>
